<svg width="20" height="20" viewBox="0 0 20 20" fill="none" xmlns="http://www.w3.org/2000/svg">
<path d="M18.7671 3.23224L18.7678 3.23287C19.2366 3.70091 19.5 4.33653 19.5 5V17C19.5 17.6635 19.2366 18.2991 18.7678 18.7671L18.7671 18.7678C18.2991 19.2366 17.6635 19.5 17 19.5H16.9797H16.9593H16.9388H16.9182H16.8975H16.8768H16.856H16.8351H16.8141H16.793H16.7719H16.7507H16.7294H16.708H16.6865H16.665H16.6434H16.6217H16.5999H16.5781H16.5562H16.5342H16.5121H16.49H16.4677H16.4454H16.4231H16.4006H16.3781H16.3555H16.3329H16.3101H16.2873H16.2644H16.2415H16.2185H16.1954H16.1722H16.149H16.1257H16.1023H16.0789H16.0554H16.0318H16.0081H15.9844H15.9606H15.9368H15.9129H15.8889H15.8648H15.8407H15.8165H15.7923H15.7679H15.7436H15.7191H15.6946H15.67H15.6454H15.6207H15.5959H15.5711H15.5462H15.5213H15.4963H15.4712H15.446H15.4208H15.3956H15.3703H15.3449H15.3195H15.294H15.2684H15.2428H15.2171H15.1914H15.1656H15.1398H15.1139H15.0879H15.0619H15.0359H15.0097H14.9836H14.9573H14.931H14.9047H14.8783H14.8519H14.8254H14.7988H14.7722H14.7455H14.7188H14.6921H14.6652H14.6384H14.6115H14.5845H14.5575H14.5304H14.5033H14.4761H14.4489H14.4217H14.3943H14.367H14.3396H14.3121H14.2846H14.2571H14.2295H14.2019H14.1742H14.1464H14.1187H14.0908H14.063H14.0351H14.0071H13.9791H13.9511H13.923H13.8949H13.8667H13.8385H13.8103H13.782H13.7537H13.7253H13.6969H13.6684H13.64H13.6114H13.5829H13.5543H13.5256H13.4969H13.4682H13.4395H13.4107H13.3819H13.353H13.3241H13.2952H13.2662H13.2372H13.2081H13.1791H13.15H13.1208H13.0917H13.0624H13.0332H13.0039H12.9746H12.9453H12.9159H12.8865H12.8571H12.8276H12.7982H12.7686H12.7391H12.7095H12.6799H12.6503H12.6206H12.5909H12.5612H12.5315H12.5017H12.4719H12.4421H12.4122H12.3823H12.3524H12.3225H12.2926H12.2626H12.2326H12.2026H12.1725H12.1425H12.1124H12.0822H12.0521H12.022H11.9918H11.9616H11.9314H11.9011H11.8709H11.8406H11.8103H11.78H11.7496H11.7193H11.6889H11.6585H11.6281H11.5977H11.5672H11.5368H11.5063H11.4758H11.4453H11.4148H11.3843H11.3537H11.3231H11.2926H11.262H11.2314H11.2007H11.1701H11.1395H11.1088H11.0781H11.0475H11.0168H10.9861H10.9554H10.9247H10.8939H10.8632H10.8324H10.8017H10.7709H10.7401H10.7094H10.6786H10.6478H10.617H10.5862H10.5553H10.5245H10.4937H10.4629H10.432H10.4012H10.3703H10.3395H10.3086H10.2778H10.2469H10.2161H10.1852H10.1543H10.1235H10.0926H10.0617H10.0309H10H9.96913H9.93826H9.90739H9.87652H9.84566H9.81479H9.78393H9.75307H9.72221H9.69135H9.6605H9.62965H9.59881H9.56797H9.53713H9.5063H9.47547H9.44465H9.41384H9.38303H9.35223H9.32143H9.29064H9.25986H9.22909H9.19832H9.16757H9.13682H9.10608H9.07535H9.04463H9.01392H8.98322H8.95253H8.92185H8.89119H8.86053H8.82989H8.79926H8.76864H8.73803H8.70744H8.67686H8.6463H8.61575H8.58521H8.55469H8.52419H8.49369H8.46322H8.43276H8.40232H8.37189H8.34149H8.3111H8.28072H8.25037H8.22003H8.18971H8.15942H8.12914H8.09888H8.06864H8.03842H8.00822H7.97804H7.94789H7.91775H7.88764H7.85755H7.82748H7.79744H7.76741H7.73742H7.70744H7.67749H7.64757H7.61767H7.58779H7.55794H7.52812H7.49832H7.46855H7.4388H7.40908H7.3794H7.34973H7.3201H7.29049H7.26092H7.23137H7.20185H7.17236H7.1429H7.11347H7.08407H7.05471H7.02537H6.99607H6.9668H6.93756H6.90835H6.87918H6.85003H6.82093H6.79185H6.76281H6.73381H6.70484H6.67591H6.64701H6.61814H6.58932H6.56053H6.53177H6.50306H6.47438H6.44573H6.41713H6.38857H6.36004H6.33155H6.30311H6.2747H6.24633H6.218H6.18971H6.16147H6.13326H6.1051H6.07698H6.0489H6.02087H5.99287H5.96492H5.93702H5.90915H5.88134H5.85356H5.82583H5.79815H5.77051H5.74292H5.71537H5.68787H5.66042H5.63302H5.60566H5.57835H5.55108H5.52387H5.49671H5.46959H5.44252H5.41551H5.38854H5.36162H5.33476H5.30794H5.28118H5.25447H5.22781H5.2012H5.17465H5.14814H5.12169H5.0953H5.06896H5.04267H5.01644H4.99026H4.96414H4.93807H4.91206H4.88611H4.86021H4.83437H4.80858H4.78286H4.75719H4.73158H4.70602H4.68053H4.6551H4.62972H4.60441H4.57915H4.55396H4.52882H4.50375H4.47874H4.45379H4.4289H4.40407H4.37931H4.35461H4.32997H4.3054H4.28089H4.25644H4.23206H4.20774H4.18349H4.15931H4.13519H4.11114H4.08715H4.06323H4.03938H4.01559H3.99187H3.96823H3.94464H3.92113H3.89769H3.87432H3.85101H3.82778H3.80462H3.78152H3.7585H3.73555H3.71267H3.68987H3.66713H3.64447H3.62188H3.59937H3.57692H3.55456H3.53226H3.51004H3.4879H3.46583H3.44384H3.42192H3.40008H3.37831H3.35663H3.33502H3.31348H3.29203H3.27065H3.24935H3.22813H3.20699H3.18593H3.16495H3.14404H3.12322H3.10248H3.08182H3.06124H3.04075H3.02033H3C2.33653 19.5 1.70091 19.2366 1.23287 18.7678L1.23224 18.7671C0.763363 18.2991 0.5 17.6635 0.5 17V16.982V16.9639V16.9457V16.9274V16.9092V16.8908V16.8724V16.8539V16.8354V16.8167V16.7981V16.7794V16.7606V16.7417V16.7228V16.7038V16.6848V16.6657V16.6466V16.6274V16.6081V16.5888V16.5694V16.55V16.5305V16.5109V16.4913V16.4717V16.4519V16.4322V16.4123V16.3924V16.3725V16.3525V16.3324V16.3123V16.2921V16.2719V16.2516V16.2313V16.2109V16.1905V16.17V16.1495V16.1289V16.1082V16.0875V16.0668V16.046V16.0251V16.0042V15.9832V15.9622V15.9412V15.9201V15.8989V15.8777V15.8565V15.8351V15.8138V15.7924V15.7709V15.7494V15.7279V15.7063V15.6846V15.663V15.6412V15.6194V15.5976V15.5757V15.5538V15.5318V15.5098V15.4878V15.4657V15.4435V15.4213V15.3991V15.3768V15.3545V15.3321V15.3097V15.2872V15.2647V15.2422V15.2196V15.197V15.1743V15.1516V15.1289V15.1061V15.0832V15.0604V15.0375V15.0145V14.9915V14.9685V14.9454V14.9223V14.8992V14.876V14.8528V14.8295V14.8062V14.7829V14.7595V14.7361V14.7126V14.6891V14.6656V14.6421V14.6185V14.5948V14.5712V14.5475V14.5237V14.5V14.4762V14.4523V14.4285V14.4046V14.3806V14.3566V14.3326V14.3086V14.2845V14.2604V14.2363V14.2121V14.188V14.1637V14.1395V14.1152V14.0909V14.0665V14.0421V14.0177V13.9933V13.9688V13.9443V13.9198V13.8953V13.8707V13.8461V13.8214V13.7968V13.7721V13.7474V13.7226V13.6979V13.6731V13.6483V13.6234V13.5985V13.5736V13.5487V13.5238V13.4988V13.4738V13.4488V13.4238V13.3987V13.3736V13.3485V13.3234V13.2982V13.273V13.2478V13.2226V13.1974V13.1721V13.1468V13.1215V13.0962V13.0708V13.0455V13.0201V12.9947V12.9693V12.9438V12.9184V12.8929V12.8674V12.8419V12.8163V12.7908V12.7652V12.7396V12.714V12.6884V12.6628V12.6371V12.6115V12.5858V12.5601V12.5344V12.5086V12.4829V12.4572V12.4314V12.4056V12.3798V12.354V12.3282V12.3023V12.2765V12.2506V12.2248V12.1989V12.173V12.1471V12.1212V12.0953V12.0693V12.0434V12.0174V11.9914V11.9655V11.9395V11.9135V11.8875V11.8615V11.8355V11.8094V11.7834V11.7574V11.7313V11.7052V11.6792V11.6531V11.627V11.601V11.5749V11.5488V11.5227V11.4966V11.4705V11.4444V11.4182V11.3921V11.366V11.3399V11.3137V11.2876V11.2615V11.2353V11.2092V11.183V11.1569V11.1307V11.1046V11.0785V11.0523V11.0262V11V10.9739V10.9477V10.9216V10.8954V10.8693V10.8431V10.817V10.7908V10.7647V10.7385V10.7124V10.6863V10.6601V10.634V10.6079V10.5818V10.5556V10.5295V10.5034V10.4773V10.4512V10.4251V10.399V10.373V10.3469V10.3208V10.2948V10.2687V10.2427V10.2166V10.1906V10.1645V10.1385V10.1125V10.0865V10.0605V10.0345V10.0086V9.98259V9.95663V9.93069V9.90475V9.87883V9.85291V9.82701V9.80111V9.77523V9.74936V9.7235V9.69766V9.67182V9.646V9.62019V9.5944V9.56862V9.54285V9.5171V9.49135V9.46563V9.43992V9.41422V9.38854V9.36288V9.33723V9.31159V9.28598V9.26038V9.23479V9.20922V9.18367V9.15814V9.13262V9.10713V9.08165V9.05619V9.03074V9.00532V8.97991V8.95453V8.92916V8.90382V8.87849V8.85319V8.8279V8.80264V8.7774V8.75218V8.72698V8.7018V8.67664V8.65151V8.6264V8.60131V8.57625V8.55121V8.52619V8.50119V8.47622V8.45128V8.42636V8.40146V8.37659V8.35174V8.32692V8.30213V8.27736V8.25262V8.22791V8.20322V8.17856V8.15392V8.12931V8.10474V8.08019V8.05566V8.03117V8.0067V7.98227V7.95786V7.93349V7.90914V7.88482V7.86053V7.83628V7.81205V7.78786V7.7637V7.73956V7.71546V7.6914V7.66736V7.64336V7.61939V7.59545V7.57155V7.54768V7.52384V7.50004V7.47627V7.45254V7.42884V7.40517V7.38154V7.35795V7.33439V7.31087V7.28739V7.26394V7.24053V7.21715V7.19381V7.17051V7.14725V7.12403V7.10084V7.07769V7.05459V7.03152V7.00849V6.98549V6.96254V6.93963V6.91676V6.89393V6.87114V6.84839V6.82568V6.80302V6.78039V6.75781V6.73527V6.71277V6.69032V6.6679V6.64554V6.62321V6.60093V6.57869V6.5565V6.53435V6.51224V6.49018V6.46817V6.4462V6.42428V6.4024V6.38057V6.35879V6.33705V6.31536V6.29371V6.27212V6.25057V6.22907V6.20762V6.18621V6.16486V6.14355V6.12229V6.10109V6.07993V6.05882V6.03776V6.01675V5.9958V5.97489V5.95404V5.93323V5.91248V5.89178V5.87113V5.85054V5.83V5.80951V5.78907V5.76869V5.74836V5.72808V5.70786V5.68769V5.66758V5.64752V5.62752V5.60757V5.58768V5.56785V5.54807V5.52834V5.50868V5.48907V5.46952V5.45002V5.43058V5.4112V5.39188V5.37262V5.35342V5.33427V5.31518V5.29616V5.27719V5.25828V5.23943V5.22065V5.20192V5.18326V5.16465V5.14611V5.12763V5.10921V5.09085V5.07255V5.05432V5.03615V5.01804V5C0.5 4.33653 0.763363 3.70091 1.23224 3.23287L1.23287 3.23224C1.70091 2.76337 2.33653 2.5 3 2.5C3.82843 2.5 4.5 1.82843 4.5 1C4.5 0.724142 4.72414 0.5 5 0.5C5.27586 0.5 5.5 0.724142 5.5 1C5.5 1.82843 6.17157 2.5 7 2.5H13C13.8284 2.5 14.5 1.82843 14.5 1C14.5 0.724142 14.7241 0.5 15 0.5C15.2759 0.5 15.5 0.724142 15.5 1C15.5 1.82843 16.1716 2.5 17 2.5C17.6635 2.5 18.2991 2.76337 18.7671 3.23224ZM18.5 14C18.5 10.4102 15.5899 7.5 12 7.5H8C4.41015 7.5 1.5 10.4102 1.5 14V17C1.5 17.3959 1.65645 17.7781 1.9385 18.0596C2.22024 18.3429 2.6032 18.5 3 18.5H17C17.3959 18.5 17.7781 18.3435 18.0596 18.0615C18.3429 17.7798 18.5 17.3968 18.5 17V14ZM15 15.5H8C7.72414 15.5 7.5 15.2759 7.5 15C7.5 14.7241 7.72414 14.5 8 14.5H15C15.2759 14.5 15.5 14.7241 15.5 15C15.5 15.2759 15.2759 15.5 15 15.5ZM12 11.5H5C4.72414 11.5 4.5 11.2759 4.5 11C4.5 10.7241 4.72414 10.5 5 10.5H12C12.2759 10.5 12.5 10.7241 12.5 11C12.5 11.2759 12.2759 11.5 12 11.5ZM17 3.5H3C2.60364 3.5 2.22109 3.6568 1.93944 3.93945C1.6568 4.22109 1.5 4.60364 1.5 5C1.5 5.82843 2.17157 6.5 3 6.5H17C17.8284 6.5 18.5 5.82843 18.5 5C18.5 4.60364 18.3432 4.22109 18.0606 3.93945C17.7789 3.6568 17.3964 3.5 17 3.5Z" fill="white" stroke="#666666"/>
</svg>
